HIERARCHY
ROOT Hips
{
	OFFSET 0.000000 0.000000 0.000000
	CHANNELS 6 Xposition Yposition Zposition Zrotation Yrotation Xrotation 
	JOINT LHipJoint
	{
		OFFSET 0.000000 0.000000 0.000000
		CHANNELS 3 Zrotation Yrotation Xrotation
		JOINT LeftUpLeg
		{
			OFFSET 1.363060 -1.794630 0.839290
			CHANNELS 3 Zrotation Yrotation Xrotation
			JOINT LeftLeg
			{
				OFFSET 2.448110 -6.726130 0.000000
				CHANNELS 3 Zrotation Yrotation Xrotation
				JOINT LeftFoot
				{
					OFFSET 2.562200 -7.039590 0.000000
					CHANNELS 3 Zrotation Yrotation Xrotation
					JOINT LeftToeBase
					{
						OFFSET 0.157640 -0.433110 2.322550
						CHANNELS 3 Zrotation Yrotation Xrotation
						End Site
						{
							OFFSET 0.000000 0.000000 0.000000
						}
					}
				}
			}
		}
	}
	JOINT RHipJoint
	{
		OFFSET 0.000000 0.000000 0.000000
		CHANNELS 3 Zrotation Yrotation Xrotation
		JOINT RightUpLeg
		{
			OFFSET -1.305520 -1.794630 0.839290
			CHANNELS 3 Zrotation Yrotation Xrotation
			JOINT RightLeg
			{
				OFFSET -2.542530 -6.985550 0.000000
				CHANNELS 3 Zrotation Yrotation Xrotation
				JOINT RightFoot
				{
					OFFSET -2.568260 -7.056230 0.000000
					CHANNELS 3 Zrotation Yrotation Xrotation
					JOINT RightToeBase
					{
						OFFSET -0.164730 -0.452590 2.363150
						CHANNELS 3 Zrotation Yrotation Xrotation
						End Site
						{
							OFFSET 0.000000 0.000000 0.000000
						}
					}
				}
			}
		}
	}
}
MOTION
Frames: 19
Frame Time: 0.008333
-2.005864 16.891164 -0.857192 -164.617550 84.124677 -154.976845 -11.137286 3.205318 -0.308745 -10.411657 -0.258348 1.130442 -1.398029 1.865947 29.517491 0.619727 2.742043 -5.152211 0.079401 0.000000 -63.395899 8.168423 -0.158327 2.983912 4.670393 9.183644 -30.053472 3.054368 -0.253474 9.332262 1.521897 10.279858 9.294935 2.452601 0.000000 -60.537200
-1.864098 16.910129 -0.870791 -163.187991 83.572585 -153.616822 -11.373186 3.299187 -0.396143 -9.710856 0.780435 0.055148 -1.187060 2.034543 31.536756 0.656493 3.133140 -3.491897 0.181501 0.000000 -65.989600 8.112230 -0.273917 2.929387 5.220771 8.838951 -29.596449 3.083534 -0.281463 9.644211 1.498441 10.038055 9.365548 2.386900 -0.000000 -59.065300
-1.724498 16.929154 -0.883531 -162.206908 82.981656 -152.685012 -11.605193 3.376080 -0.491342 -9.022672 1.904502 -1.169811 -0.965931 2.191521 33.664748 0.722932 3.664686 -1.763418 0.307200 0.000000 -67.643800 8.059135 -0.387164 2.889724 5.737930 8.489158 -29.121907 3.119521 -0.293661 9.873211 1.478505 9.818167 9.314577 2.308600 0.000000 -57.490700
-1.587493 16.948175 -0.895305 -161.681840 82.352489 -152.190104 -11.823704 3.431114 -0.590103 -8.388089 3.062239 -2.515146 -0.738682 2.334467 35.871397 0.827971 4.411870 0.002847 0.476900 -0.000000 -68.260301 8.014585 -0.494788 2.858550 6.210984 8.110766 -28.634314 3.160743 -0.291322 10.020916 1.462595 9.631505 9.158560 2.224800 0.000000 -55.915200
-1.453122 16.967167 -0.907169 -161.385204 81.679972 -151.896940 -12.036143 3.460382 -0.687460 -7.791929 4.230107 -3.987414 -0.511333 2.463001 38.153066 0.973746 5.401735 1.733579 0.709900 -0.000000 -67.573900 7.967949 -0.599139 2.839779 6.664964 7.721275 -28.138367 3.210347 -0.271209 10.063260 1.448484 9.444727 8.935287 2.131300 -0.000000 -54.409500
-1.321925 16.986145 -0.919010 -161.359940 80.968991 -151.859133 -12.231241 3.461265 -0.783233 -7.276151 5.362100 -5.537420 -0.291783 2.577354 40.464739 1.162800 6.679612 3.373352 1.032200 0.000000 -65.622601 7.926293 -0.696427 2.821556 7.088288 7.289709 -27.628929 3.264982 -0.236532 10.012052 1.436052 9.269634 8.663783 2.035101 0.000000 -53.079100
-1.193771 17.005126 -0.931629 -161.456928 80.216168 -151.919819 -12.413406 3.433645 -0.872308 -6.828600 6.436985 -7.169417 -0.088808 2.679903 42.798021 1.388978 8.224990 4.809228 1.450100 0.000000 -62.096300 7.881587 -0.789301 2.808305 7.500091 6.832967 -27.115136 3.325871 -0.185730 9.855268 1.422603 9.072410 8.377867 1.931200 0.000000 -51.961799
-1.069066 17.024154 -0.944867 -161.697731 79.428670 -152.113235 -12.574390 3.379702 -0.957325 -6.473692 7.430143 -8.837480 0.090502 2.774102 45.104810 1.645135 10.012467 5.968277 1.959700 0.000000 -57.226400 7.839511 -0.875164 2.789602 7.890775 6.333215 -26.588207 3.389029 -0.122667 9.609116 1.407104 8.856121 8.093010 1.823600 0.000000 -51.103600
-0.947829 17.043259 -0.958818 -162.040577 78.609678 -152.399649 -12.712590 3.304110 -1.037402 -6.212441 8.328798 -10.521947 0.241894 2.863827 47.350148 1.919439 11.970894 6.775265 2.529300 -0.000000 -51.240900 7.800138 -0.954545 2.763973 8.260643 5.795998 -26.048920 3.452099 -0.049454 9.282610 1.387579 8.605858 7.825996 1.710900 -0.000000 -50.495800
-0.830148 17.062463 -0.973196 -162.490486 77.766601 -152.791284 -12.823957 3.212887 -1.113554 -6.053709 9.121621 -12.190457 0.365028 2.951942 49.487248 2.199938 14.013956 7.207385 3.113000 -0.000000 -44.705500 7.767791 -1.026385 2.726185 8.599679 5.219328 -25.494193 3.511130 0.029984 8.895270 1.362873 8.320405 7.582752 1.594300 0.000000 -50.108600
-0.715652 17.081781 -0.988041 -163.006521 76.901221 -153.240480 -12.910361 3.111886 -1.180968 -5.989831 9.800534 -13.841408 0.462759 3.039478 51.486824 2.474223 16.036384 7.275319 3.654300 0.000000 -38.252900 7.740961 -1.092630 2.681885 8.907378 4.626216 -24.934668 3.564163 0.114094 8.456675 1.330846 7.979988 7.370976 1.469700 -0.000000 -49.883400
-0.604375 17.101177 -1.002662 -163.640604 76.024415 -153.808260 -12.966280 3.007669 -1.241957 -6.039074 10.358878 -15.437748 0.538923 3.125689 53.310424 2.732015 17.945830 7.034967 4.108000 0.000001 -32.520300 7.728691 -1.150824 2.623626 9.161098 4.005910 -24.367378 3.605953 0.197222 7.998790 1.291967 7.603546 7.180704 1.341800 0.000000 -49.771201
-0.495991 17.120625 -1.016805 -164.383413 75.140510 -154.481404 -12.992560 2.905521 -1.294881 -6.201110 10.800138 -16.978242 0.596823 3.209111 54.947172 2.962223 19.644844 6.521859 4.427300 0.000000 -27.753100 7.732646 -1.201738 2.555515 9.352003 3.373314 -23.802066 3.634194 0.276978 7.538121 1.245692 7.189408 7.006508 1.209900 -0.000001 -49.715500
-0.390184 17.140023 -1.030170 -165.237864 74.255176 -155.263241 -12.989365 2.809955 -1.341499 -6.477743 11.136796 -18.456213 0.638310 3.288046 56.389716 3.155000 21.050940 5.762376 4.575000 -0.000000 -23.922300 7.755586 -1.245390 2.478943 9.469880 2.736005 -23.242783 3.646763 0.350696 7.092737 1.192314 6.745607 6.837836 1.075500 0.000000 -49.673200
-0.286447 17.159228 -1.042825 -166.173762 73.369047 -156.114374 -12.960323 2.723283 -1.378980 -6.859764 11.381033 -19.886881 0.664595 3.360019 57.637930 3.303119 22.103551 4.793684 4.534500 0.000000 -20.970800 7.794744 -1.283831 2.403457 9.516315 2.119565 -22.701007 3.643946 0.418709 6.665318 1.131150 6.263813 6.670071 0.935800 0.000000 -49.609100
-0.184673 17.178077 -1.054637 -167.186586 72.487128 -157.035384 -12.906999 2.647135 -1.412043 -7.342263 11.553375 -21.258355 0.674506 3.423574 58.683424 3.401410 22.765871 3.640874 4.304400 0.000000 -18.634800 7.850663 -1.316523 2.327397 9.488167 1.526038 -22.170592 3.625470 0.479671 6.264585 1.063165 5.756886 6.493078 0.793800 0.000000 -49.510400
-0.084597 17.196447 -1.065823 -168.245413 71.609915 -157.993808 -12.833700 2.581084 -1.440433 -7.909346 11.668125 -22.572170 0.667034 3.476685 59.519782 3.448583 23.033005 2.360142 3.915200 0.000000 -16.849900 7.919293 -1.344560 2.254595 9.393798 0.969427 -21.648509 3.593103 0.534846 5.884762 0.988409 5.223210 6.303210 0.648599 -0.000000 -49.371800
0.013940 17.214176 -1.076688 -169.318622 70.737209 -158.958711 -12.745017 2.523491 -1.463776 -8.541969 11.736930 -23.826841 0.641168 3.517704 60.139782 3.446799 22.930168 1.021461 3.418400 0.000000 -15.625700 7.996066 -1.368728 2.186886 9.245184 0.458207 -21.129462 3.549270 0.585919 5.516519 0.907170 4.662654 6.099559 0.500300 -0.000000 -49.200000
0.111017 17.231140 -1.087634 -170.374119 69.869513 -159.900110 -12.645811 2.472404 -1.483267 -9.217529 11.773495 -25.019537 0.595114 3.546604 60.541403 3.400554 22.500398 -0.340188 2.859600 0.000000 -14.712300 8.075948 -1.389696 2.123915 9.057902 -0.003945 -20.604397 3.496816 0.634812 5.148473 0.819839 4.075560 5.883415 0.348899 0.000000 -49.007800
